<svg width="200" height="200" viewBox="0 0 200 200" fill="none" xmlns="http://www.w3.org/2000/svg">
  <!-- Fond blanc -->
  <rect width="200" height="200" fill="white" rx="8"/>
  
  <!-- QR Code pattern simplifié -->
  <!-- Coin supérieur gauche -->
  <rect x="20" y="20" width="50" height="50" fill="#000"/>
  <rect x="30" y="30" width="30" height="30" fill="white"/>
  <rect x="40" y="40" width="10" height="10" fill="#000"/>
  
  <!-- Coin supérieur droit -->
  <rect x="130" y="20" width="50" height="50" fill="#000"/>
  <rect x="140" y="30" width="30" height="30" fill="white"/>
  <rect x="150" y="40" width="10" height="10" fill="#000"/>
  
  <!-- Coin inférieur gauche -->
  <rect x="20" y="130" width="50" height="50" fill="#000"/>
  <rect x="30" y="140" width="30" height="30" fill="white"/>
  <rect x="40" y="150" width="10" height="10" fill="#000"/>
  
  <!-- Points de données -->
  <rect x="20" y="90" width="10" height="10" fill="#000"/>
  <rect x="40" y="90" width="10" height="10" fill="#000"/>
  <rect x="60" y="90" width="10" height="10" fill="#000"/>
  <rect x="80" y="90" width="10" height="10" fill="#000"/>
  <rect x="100" y="90" width="10" height="10" fill="#000"/>
  <rect x="120" y="90" width="10" height="10" fill="#000"/>
  <rect x="140" y="90" width="10" height="10" fill="#000"/>
  <rect x="160" y="90" width="10" height="10" fill="#000"/>
  
  <rect x="20" y="110" width="10" height="10" fill="#000"/>
  <rect x="60" y="110" width="10" height="10" fill="#000"/>
  <rect x="100" y="110" width="10" height="10" fill="#000"/>
  <rect x="140" y="110" width="10" height="10" fill="#000"/>
  <rect x="170" y="110" width="10" height="10" fill="#000"/>
  
  <rect x="40" y="130" width="10" height="10" fill="#000"/>
  <rect x="80" y="130" width="10" height="10" fill="#000"/>
  <rect x="120" y="130" width="10" height="10" fill="#000"/>
  <rect x="160" y="130" width="10" height="10" fill="#000"/>
  
  <rect x="20" y="150" width="10" height="10" fill="#000"/>
  <rect x="60" y="150" width="10" height="10" fill="#000"/>
  <rect x="100" y="150" width="10" height="10" fill="#000"/>
  <rect x="140" y="150" width="10" height="10" fill="#000"/>
  <rect x="170" y="150" width="10" height="10" fill="#000"/>
  
  <rect x="40" y="170" width="10" height="10" fill="#000"/>
  <rect x="80" y="170" width="10" height="10" fill="#000"/>
  <rect x="120" y="170" width="10" height="10" fill="#000"/>
  <rect x="160" y="170" width="10" height="10" fill="#000"/>
  
  <!-- Bordure -->
  <rect x="0" y="0" width="200" height="200" fill="none" stroke="#0063CB" stroke-width="3" rx="8"/>
</svg>
