<svg width="600" height="400" viewBox="0 0 600 400" fill="none" xmlns="http://www.w3.org/2000/svg">
  <rect width="600" height="400" fill="#F5F5FE"/>
  <!-- Bâtiments -->
  <rect x="50" y="200" width="80" height="200" fill="#6E6E6E" rx="4"/>
  <rect x="60" y="220" width="15" height="15" fill="#FFE100"/>
  <rect x="85" y="220" width="15" height="15" fill="#FFE100"/>
  <rect x="60" y="245" width="15" height="15" fill="#FFE100"/>
  <rect x="85" y="245" width="15" height="15" fill="#FFE100"/>
  
  <rect x="150" y="150" width="100" height="250" fill="#6E6E6E" rx="4"/>
  <rect x="165" y="170" width="20" height="20" fill="#FFE100"/>
  <rect x="195" y="170" width="20" height="20" fill="#FFE100"/>
  <rect x="225" y="170" width="20" height="20" fill="#FFE100"/>
  <rect x="165" y="200" width="20" height="20" fill="#FFE100"/>
  <rect x="195" y="200" width="20" height="20" fill="#FFE100"/>
  <rect x="225" y="200" width="20" height="20" fill="#FFE100"/>
  
  <rect x="280" y="180" width="90" height="220" fill="#6E6E6E" rx="4"/>
  <rect x="295" y="200" width="18" height="18" fill="#FFE100"/>
  <rect x="325" y="200" width="18" height="18" fill="#FFE100"/>
  <rect x="352" y="200" width="18" height="18" fill="#FFE100"/>
  
  <rect x="400" y="220" width="70" height="180" fill="#6E6E6E" rx="4"/>
  <rect x="415" y="240" width="15" height="15" fill="#FFE100"/>
  <rect x="440" y="240" width="15" height="15" fill="#FFE100"/>
  <rect x="455" y="240" width="15" height="15" fill="#FFE100"/>
  
  <rect x="500" y="190" width="60" height="210" fill="#6E6E6E" rx="4"/>
  <rect x="515" y="210" width="15" height="15" fill="#FFE100"/>
  <rect x="540" y="210" width="15" height="15" fill="#FFE100"/>
  
  <!-- QR Code flottant -->
  <rect x="250" y="50" width="100" height="100" fill="white" rx="8" stroke="#0063CB" stroke-width="2"/>
  <rect x="265" y="65" width="20" height="20" fill="#000"/>
  <rect x="290" y="65" width="20" height="20" fill="#000"/>
  <rect x="315" y="65" width="20" height="20" fill="#000"/>
  <rect x="265" y="90" width="20" height="20" fill="#000"/>
  <rect x="315" y="90" width="20" height="20" fill="#000"/>
  <rect x="265" y="115" width="20" height="20" fill="#000"/>
  <rect x="290" y="115" width="20" height="20" fill="#000"/>
  <rect x="315" y="115" width="20" height="20" fill="#000"/>
  
  <!-- Texte -->
  <text x="300" y="180" font-family="Arial, sans-serif" font-size="14" fill="#0063CB" text-anchor="middle" font-weight="bold">Contribcit</text>
</svg>
